# xmcd CD database file
#
# Track frame offsets:
#	150
#	24275
#	48138
#	72380
#	97438
#	119650
#	140071
#	162445
#	184738
#	207220
#	231819
#	253570
#	279398
#	303903
#
# Disc length: 4454 seconds
#
# Revision: 1
# Processed by: cddbd v1.4PL0 Copyright (c) Steve Scherf et al.
# Submitted via: CDex 1.51
#
DISCID=cc11640e
DTITLE=Michel Pépé - Floraisons Sacrées
DYEAR=2001
DGENRE=New Age
TTITLE0=fleur de lys
TTITLE1=les lumières du jour
TTITLE2=himalaya
TTITLE3=magnificat
TTITLE4=amor celtica
TTITLE5=quinta essencia
TTITLE6=adagio
TTITLE7=akchimia d'amore
TTITLE8=la route de la soie
TTITLE9=fleur d'amour
TTITLE10=les ailes de lumi`re
TTITLE11=officium
TTITLE12=eurasia
TTITLE13=anima mea
EXTD=YEAR: 2001
EXTT0=
EXTT1=
EXTT2=
EXTT3=
EXTT4=
EXTT5=
EXTT6=
EXTT7=
EXTT8=
EXTT9=
EXTT10=
EXTT11=
EXTT12=
EXTT13=
PLAYORDER=
